<svg width="330" height="83" xmlns="http://www.w3.org/2000/svg">

 <g>
  <title>Layer 1</title>
  <rect stroke="null" id="svg_42" fill="none" height="83.11" width="330.38" y="0.00001" x="0" class="cls-1"/>
  <polyline id="svg_43" stroke-width="1.55px" stroke-miterlimit="10" stroke="#231f20" fill="none" points="78.91000366210938,73.1500244140625 88.8800048828125,73.1500244140625 88.8800048828125,50.970001220703125 98.97000122070312,50.970001220703125 98.97000122070312,73.1500244140625 105.79998779296875,73.1500244140625 105.79998779296875,10.779998779296875 115.76998901367188,10.779998779296875 115.76998901367188,73.1500244140625 122.47998046875,73.1500244140625 122.47998046875,28.240020751953125 132.58001708984375,28.240020751953125 132.58001708984375,73.1500244140625 142.489990234375,73.1500244140625 " class="cls-3"/>
  <path id="svg_44" fill="#231f20" d="m165.88,38.55001l-3.88,0c-0.12,-0.87 -0.21,-1.51 -0.24,-2.42c-1.27,2.25 -3.25,2.91 -5.65,2.91c-5.95,0 -8.1,-5.29 -8.1,-14.54c0,-10.39 3.51,-14.86 9.62,-14.86c7.71,0 8.14,6.61 8.22,8.3l-5.04,0c-0.08,-1.15 -0.33,-3.99 -3.34,-3.99c-3.28,0 -4.2,4.38 -4.2,10.54c0,6.64 0.78,10.28 4.03,10.28c2.7,0 3.52,-2.07 3.52,-6.26l0,-1.6l-3.83,0l0,-4.35l8.9,0l0,15.99l-0.01,0z" class="cls-5"/>
  <path id="svg_45" fill="#231f20" d="m177.46,26.41001l0,12.14l-5.07,0l0,-28.46l8.72,0c5.17,0 8.11,2.7 8.11,7.78c0,4.12 -2.2,5.89 -3.69,6.48c2.2,1.03 3.25,2.9 3.25,7.11l0,1.14c0,3.23 0.15,4.44 0.38,5.96l-4.93,0c-0.42,-1.3 -0.49,-3.56 -0.49,-6.01l0,-1.04c0,-3.8 -0.87,-5.09 -4.09,-5.09l-2.18,0l-0.01,-0.01zm0,-4.13l2.39,0c3.08,0 4.28,-1.32 4.28,-4.2c0,-2.45 -1.17,-3.87 -3.78,-3.87l-2.89,0l0,8.07z" class="cls-5"/>
  <path id="svg_46" fill="#231f20" d="m199.86,31.39001l-1.41,7.16l-5.11,0l6.59,-28.46l6.62,0l6.66,28.46l-5.35,0l-1.42,-7.16l-6.59,0l0.01,0zm5.68,-4.42c-1.06,-5.45 -1.91,-9.43 -2.36,-12.15l-0.12,0c-0.35,2.62 -1.25,6.9 -2.3,12.15l4.78,0z" class="cls-5"/>
  <path id="svg_47" fill="#231f20" d="m217.73,10.08001l7.42,0c7.32,0 10.17,4.69 10.17,13.65c0,9.61 -2.72,14.82 -10.56,14.82l-7.02,0l0,-28.46l-0.01,-0.01zm5.14,24.3l1.82,0c3.98,0 5.35,-3 5.35,-10.63c0,-6.55 -1.22,-9.43 -5.31,-9.43l-1.86,0l0,20.06z" class="cls-5"/>
  <path id="svg_48" fill="#231f20" d="m246.28,10.08001l0,19.58c0,2.33 0.58,5.1 3.71,5.1s3.68,-2.33 3.68,-5.07l0,-19.62l5.11,0l0,19.69c0,5.11 -1.99,9.26 -8.87,9.26s-8.74,-3.91 -8.74,-9.27l0,-19.69l5.11,0l0,0.02z" class="cls-5"/>
  <path id="svg_49" fill="#231f20" d="m269.4,31.39001l-1.41,7.16l-5.11,0l6.59,-28.46l6.62,0l6.66,28.46l-5.35,0l-1.42,-7.16l-6.59,0l0.01,0zm5.68,-4.42c-1.06,-5.45 -1.91,-9.43 -2.36,-12.15l-0.12,0c-0.35,2.62 -1.25,6.9 -2.3,12.15l4.78,0z" class="cls-5"/>
  <path id="svg_50" fill="#231f20" d="m289.09,14.55001l-6.08,0l0,-4.46l17.27,0l0,4.46l-6.08,0l0,24l-5.11,0l0,-24z" class="cls-5"/>
  <path id="svg_51" fill="#231f20" d="m319.32,25.90001l-9.14,0l0,8.27l10.26,0l-0.63,4.39l-14.66,0l0,-28.46l14.6,0l0,4.46l-9.57,0l0,6.93l9.14,0l0,4.42l0,-0.01z" class="cls-5"/>
  <path id="svg_52" fill="#231f20" d="m165.59,65.86001c-0.13,1.44 -0.67,8.78 -8.57,8.78s-9.02,-7.11 -9.02,-14.76c0,-9.22 2.7,-14.65 9.33,-14.65c7.55,0 8.13,6.47 8.25,8.75l-5.04,0c-0.08,-0.97 -0.15,-4.43 -3.29,-4.43s-3.98,3.92 -3.98,10.43c0,5.37 0.54,10.41 3.84,10.41c3.04,0 3.28,-3.44 3.41,-4.53l5.08,0l-0.01,0z" class="cls-5"/>
  <path id="svg_53" fill="#231f20" d="m185.04,61.49001l-9.14,0l0,8.27l10.26,0l-0.63,4.39l-14.66,0l0,-28.46l14.6,0l0,4.46l-9.57,0l0,6.93l9.14,0l0,4.42l0,-0.01z" class="cls-5"/>
  <path id="svg_54" fill="#231f20" d="m191.36,74.14001l0,-28.46l5.79,0c5.89,15.73 7.02,18.73 7.36,20.13l0.04,0c-0.24,-3.42 -0.25,-7.61 -0.25,-12.27l0,-7.85l4.55,0l0,28.46l-5.55,0c-6.08,-16.77 -7.16,-19.79 -7.53,-21.1l-0.04,0c0.21,3.51 0.22,7.7 0.22,12.8l0,8.3l-4.59,0l0,-0.01z" class="cls-5"/>
  <path id="svg_55" fill="#231f20" d="m219.76,50.14001l-6.08,0l0,-4.46l17.27,0l0,4.46l-6.08,0l0,24l-5.11,0l0,-24z" class="cls-5"/>
  <path id="svg_56" fill="#231f20" d="m249.99,61.49001l-9.14,0l0,8.27l10.26,0l-0.63,4.39l-14.66,0l0,-28.46l14.6,0l0,4.46l-9.57,0l0,6.93l9.14,0l0,4.42l0,-0.01z" class="cls-5"/>
  <path id="svg_57" fill="#231f20" d="m261.38,62.01001l0,12.14l-5.07,0l0,-28.46l8.72,0c5.17,0 8.11,2.7 8.11,7.78c0,4.12 -2.2,5.89 -3.69,6.48c2.2,1.03 3.25,2.9 3.25,7.11l0,1.14c0,3.23 0.15,4.44 0.38,5.96l-4.93,0c-0.42,-1.3 -0.49,-3.56 -0.49,-6.01l0,-1.04c0,-3.8 -0.87,-5.09 -4.09,-5.09l-2.19,0l0,-0.01zm0,-4.13l2.39,0c3.08,0 4.28,-1.32 4.28,-4.2c0,-2.45 -1.17,-3.87 -3.78,-3.87l-2.89,0l0,8.07z" class="cls-5"/>
  <polygon id="svg_58" fill="#231f20" points="26,50.6300048828125 26,63.21002197265625 14.779998779296875,50.6300048828125 8.980010986328125,50.6300048828125 8.980010986328125,50.6300048828125 8.980010986328125,74.11001586914062 15.44000244140625,74.11001586914062 15.44000244140625,61.52001953125 26.5,74.11001586914062 32.459991455078125,74.11001586914062 32.459991455078125,50.6300048828125 26,50.6300048828125 " class="cls-5"/>
  <path id="svg_59" fill="#231f20" d="m55.94,40.76001l0,-4.87l0,0s0,0 0,0l0,-8.22l-6.32,0s-0.14,0 -0.14,0l0,13.09c0,0.58 -0.09,1.1 -0.27,1.57c-0.23,0.6 -0.61,1.13 -1.14,1.58c-0.99,0.85 -2.43,1.36 -3.86,1.36l0,0s0,0 0,0c0,0 0,0 0,0l0,0s0,0 0,0c-1.43,0 -2.87,-0.51 -3.86,-1.36c-0.53,-0.46 -0.91,-0.98 -1.14,-1.58c-0.18,-0.47 -0.27,-0.99 -0.27,-1.57l0,-13.09l-0.14,0s-6.32,0 -6.32,0l0,8.22s0,0 0,0l0,0l0,6.44l0,0c0,5.19 5.61,9.32 11.44,9.4c0.06,0 0.12,0 0.18,0c0.02,0 0.05,0 0.07,0c0.01,0 0.03,0 0.04,0l0,0s0,0 0,0c0,0 0,0 0,0c0,0 0,0 0,0l0,0s0.03,0 0.04,0c0.02,0 0.05,0 0.07,0c0.06,0 0.12,0 0.18,0c5.83,-0.08 11.44,-4.09 11.44,-9.4l0,0l0,-1.57z" class="cls-5"/>
  <path id="svg_60" fill="#231f20" d="m25.43,42.33001c-1.04,1.74 -2.9,2.9 -5.03,2.93c-0.03,0 -0.06,0 -0.08,0c-3.31,0 -6,-2.76 -6,-6.16c0,-3.4 2.69,-6.16 6,-6.16c0.03,0 0.06,0 0.08,0c2.13,0.03 3.99,1.2 5.03,2.93l7.04,0c0,-5.3 -5.58,-9.3 -11.4,-9.4c-0.01,0 -0.03,0 -0.04,0c-0.06,0 -0.12,0 -0.18,0c-0.02,0 -0.05,0 -0.07,0c-0.01,0 -0.03,0 -0.04,0l0,0s0,0 0,0c0,0 0,0 0,0c0,0 0,0 0,0l0,0s-0.03,0 -0.04,0c-0.02,0 -0.05,0 -0.07,0c-0.06,0 -0.12,0 -0.18,0l-0.47,0c-4.62,0 -8.66,2.48 -10.86,6.19c-1.12,1.88 -1.76,4.08 -1.76,6.43l0,0s0,0 0,0c0,2.35 0.64,4.55 1.76,6.43c2.2,3.71 6.24,6.19 10.86,6.19l0.47,0c0.06,0 0.12,0 0.18,0c0.02,0 0.05,0 0.07,0c0.01,0 0.03,0 0.04,0l0,0s0,0 0,0c0,0 0,0 0,0c0,0 0,0 0,0l0,0s0.03,0 0.04,0c0.02,0 0.05,0 0.07,0c0.06,0 0.12,0 0.18,0c0.01,0 0.03,0 0.04,0c5.82,-0.1 11.4,-4.1 11.4,-9.4l-7.04,0l0,0.02z" class="cls-5"/>
  <polygon id="svg_61" fill="#231f20" points="49.489990234375,50.6300048828125 44.20001220703125,61.4000244140625 38.920013427734375,50.6300048828125 32.459991455078125,50.6300048828125 40.970001220703125,67.99002075195312 40.970001220703125,74.11001586914062 47.42999267578125,74.11001586914062 47.42999267578125,67.99002075195312 55.94000244140625,50.6300048828125 49.489990234375,50.6300048828125 " class="cls-5"/>
 </g>
</svg>