<svg width="227.3" height="70.001" viewBox="0 0 227.3 70.001" xmlns="http://www.w3.org/2000/svg"><g id="svgGroup" stroke-linecap="round" fill-rule="evenodd" font-size="9pt" stroke="#5d55a5" stroke-width="0.25mm" fill="#000" style="stroke:#5d55a5;stroke-width:0.25mm;fill:#000"><path d="M 95.2 36.001 L 95.2 69.001 Q 95.2 69.794 94.57 69.958 A 1.473 1.473 0 0 1 94.2 70.001 L 93.2 70.001 Q 92.407 70.001 92.243 69.371 A 1.473 1.473 0 0 1 92.2 69.001 L 92.2 36.501 Q 92.2 30.101 88.2 26.051 A 13.47 13.47 0 0 0 79.167 22.038 A 18.063 18.063 0 0 0 78 22.001 Q 71.3 22.001 67.2 25.951 A 13.21 13.21 0 0 0 63.211 34.267 A 18.247 18.247 0 0 0 63.1 36.301 L 63.1 69.001 Q 63.1 69.794 62.47 69.958 A 1.473 1.473 0 0 1 62.1 70.001 L 61.1 70.001 Q 60.307 70.001 60.143 69.371 A 1.473 1.473 0 0 1 60.1 69.001 L 60.1 1.001 Q 60.1 0.207 60.73 0.043 A 1.473 1.473 0 0 1 61.1 0.001 L 62.1 0.001 Q 62.894 0.001 63.058 0.63 A 1.473 1.473 0 0 1 63.1 1.001 L 63.1 26.501 Q 63.1 26.71 63.173 26.798 A 0.168 0.168 0 0 0 63.25 26.851 A 0.197 0.197 0 0 0 63.287 26.859 Q 63.413 26.876 63.5 26.701 Q 65.7 23.101 69.5 21.151 A 17.373 17.373 0 0 1 74.686 19.487 A 23.19 23.19 0 0 1 78.4 19.201 A 19.222 19.222 0 0 1 84.114 20.013 A 15.465 15.465 0 0 1 90.5 23.851 Q 95.2 28.501 95.2 36.001 Z M 0 69.001 L 0 1.001 Q 0 0.207 0.63 0.043 A 1.473 1.473 0 0 1 1 0.001 L 23.7 0.001 Q 31.509 0.001 36.483 3.572 A 16.427 16.427 0 0 1 38.05 4.851 A 15.96 15.96 0 0 1 42.927 13.928 A 23.36 23.36 0 0 1 43.3 18.201 L 43.3 51.801 A 22.168 22.168 0 0 1 42.622 57.439 A 15.681 15.681 0 0 1 38.05 65.151 A 17.535 17.535 0 0 1 30.341 69.231 Q 27.326 70.001 23.7 70.001 L 1 70.001 Q 0.207 70.001 0.043 69.371 A 1.473 1.473 0 0 1 0 69.001 Z M 179.6 16.201 L 179.6 19.501 A 0.576 0.576 0 0 0 179.62 19.659 Q 179.671 19.837 179.852 19.884 A 0.589 0.589 0 0 0 180 19.901 L 192.4 19.901 Q 193.194 19.901 193.358 20.53 A 1.473 1.473 0 0 1 193.4 20.901 L 193.4 21.701 Q 193.4 22.494 192.77 22.658 A 1.473 1.473 0 0 1 192.4 22.701 L 180 22.701 A 0.576 0.576 0 0 0 179.842 22.721 Q 179.664 22.771 179.617 22.953 A 0.589 0.589 0 0 0 179.6 23.101 L 179.6 69.001 Q 179.6 69.794 178.97 69.958 A 1.473 1.473 0 0 1 178.6 70.001 L 177.7 70.001 Q 176.907 70.001 176.743 69.371 A 1.473 1.473 0 0 1 176.7 69.001 L 176.7 23.101 A 0.576 0.576 0 0 0 176.68 22.942 Q 176.629 22.765 176.448 22.718 A 0.589 0.589 0 0 0 176.3 22.701 L 169.8 22.701 Q 169.007 22.701 168.843 22.071 A 1.473 1.473 0 0 1 168.8 21.701 L 168.8 20.901 Q 168.8 20.107 169.43 19.943 A 1.473 1.473 0 0 1 169.8 19.901 L 176.3 19.901 A 0.576 0.576 0 0 0 176.458 19.881 Q 176.636 19.83 176.683 19.649 A 0.589 0.589 0 0 0 176.7 19.501 L 176.7 16.101 A 35.868 35.868 0 0 1 176.937 11.824 Q 177.501 7.149 179.401 4.367 A 10.176 10.176 0 0 1 179.7 3.951 A 8.746 8.746 0 0 1 183.405 1.191 Q 186.264 0.001 190.6 0.001 L 192.9 0.001 Q 193.694 0.001 193.858 0.63 A 1.473 1.473 0 0 1 193.9 1.001 L 193.9 1.801 Q 193.9 2.594 193.27 2.758 A 1.473 1.473 0 0 1 192.9 2.801 L 190.7 2.801 Q 184.724 2.801 182.298 5.506 A 5.888 5.888 0 0 0 181.9 6.001 A 9.897 9.897 0 0 0 180.591 8.65 Q 179.736 11.203 179.619 14.975 A 39.581 39.581 0 0 0 179.6 16.201 Z M 3.4 67.201 L 23.9 67.201 Q 30.73 67.201 34.976 63.849 A 13.895 13.895 0 0 0 35.9 63.051 A 13.697 13.697 0 0 0 39.971 55.41 A 19.964 19.964 0 0 0 40.3 51.701 L 40.3 18.401 A 19.472 19.472 0 0 0 39.735 13.573 A 13.48 13.48 0 0 0 35.9 6.951 Q 31.5 2.801 23.9 2.801 L 3.4 2.801 A 0.576 0.576 0 0 0 3.242 2.821 Q 3.064 2.871 3.017 3.053 A 0.589 0.589 0 0 0 3 3.201 L 3 66.801 A 0.576 0.576 0 0 0 3.02 66.959 Q 3.071 67.137 3.252 67.184 A 0.589 0.589 0 0 0 3.4 67.201 Z M 224.3 67.201 L 226.3 67.201 Q 227.094 67.201 227.258 67.83 A 1.473 1.473 0 0 1 227.3 68.201 L 227.3 69.001 Q 227.3 69.794 226.67 69.958 A 1.473 1.473 0 0 1 226.3 70.001 L 224.1 70.001 A 26.382 26.382 0 0 1 220.371 69.755 Q 216.449 69.193 214.05 67.351 A 7.632 7.632 0 0 1 211.699 64.198 Q 210.643 61.71 210.602 57.912 A 28.623 28.623 0 0 1 210.6 57.601 L 210.6 23.001 A 0.576 0.576 0 0 0 210.58 22.842 Q 210.529 22.665 210.348 22.618 A 0.589 0.589 0 0 0 210.2 22.601 L 204.1 22.601 Q 203.307 22.601 203.143 21.971 A 1.473 1.473 0 0 1 203.1 21.601 L 203.1 20.901 Q 203.1 20.107 203.73 19.943 A 1.473 1.473 0 0 1 204.1 19.901 L 210.2 19.901 A 0.576 0.576 0 0 0 210.358 19.881 Q 210.536 19.83 210.583 19.649 A 0.589 0.589 0 0 0 210.6 19.501 L 210.6 8.201 Q 210.6 7.407 211.23 7.243 A 1.473 1.473 0 0 1 211.6 7.201 L 212.5 7.201 Q 213.294 7.201 213.458 7.83 A 1.473 1.473 0 0 1 213.5 8.201 L 213.5 19.501 A 0.576 0.576 0 0 0 213.52 19.659 Q 213.571 19.837 213.752 19.884 A 0.589 0.589 0 0 0 213.9 19.901 L 226.1 19.901 Q 226.894 19.901 227.058 20.53 A 1.473 1.473 0 0 1 227.1 20.901 L 227.1 21.601 Q 227.1 22.394 226.47 22.558 A 1.473 1.473 0 0 1 226.1 22.601 L 213.9 22.601 A 0.576 0.576 0 0 0 213.742 22.621 Q 213.564 22.671 213.517 22.853 A 0.589 0.589 0 0 0 213.5 23.001 L 213.5 57.301 Q 213.5 62.526 215.764 64.748 A 5.323 5.323 0 0 0 216.1 65.051 A 7.879 7.879 0 0 0 218.472 66.361 Q 220.652 67.147 223.861 67.197 A 28.254 28.254 0 0 0 224.3 67.201 Z M 137.3 21.901 L 136.8 23.101 Q 136.51 23.971 135.566 23.719 A 2.191 2.191 0 0 1 135.5 23.701 A 9.54 9.54 0 0 0 133.427 23.055 Q 132.462 22.864 131.355 22.817 A 17.569 17.569 0 0 0 130.6 22.801 Q 126.6 22.801 123.4 25.001 Q 120.2 27.201 118.4 30.851 A 17.667 17.667 0 0 0 116.602 38.533 A 20.399 20.399 0 0 0 116.6 38.801 L 116.6 69.001 Q 116.6 69.794 115.97 69.958 A 1.473 1.473 0 0 1 115.6 70.001 L 114.6 70.001 Q 113.807 70.001 113.643 69.371 A 1.473 1.473 0 0 1 113.6 69.001 L 113.6 20.901 Q 113.6 20.107 114.23 19.943 A 1.473 1.473 0 0 1 114.6 19.901 L 115.6 19.901 Q 116.394 19.901 116.558 20.53 A 1.473 1.473 0 0 1 116.6 20.901 L 116.6 28.601 Q 116.6 28.81 116.673 28.898 A 0.168 0.168 0 0 0 116.75 28.951 A 0.136 0.136 0 0 0 116.783 28.958 Q 116.911 28.967 117 28.702 A 1.266 1.266 0 0 0 117 28.701 A 18.523 18.523 0 0 1 119.821 24.449 A 15.91 15.91 0 0 1 122.65 21.951 A 13.881 13.881 0 0 1 129.743 19.539 A 17.25 17.25 0 0 1 130.9 19.501 A 18.541 18.541 0 0 1 133.467 19.669 Q 134.811 19.857 135.945 20.256 A 10.109 10.109 0 0 1 136.8 20.601 Q 137.566 20.888 137.324 21.816 A 2.405 2.405 0 0 1 137.3 21.901 Z M 150.3 68.901 L 150.3 20.801 Q 150.3 20.007 150.93 19.843 A 1.473 1.473 0 0 1 151.3 19.801 L 152.3 19.801 Q 153.094 19.801 153.258 20.43 A 1.473 1.473 0 0 1 153.3 20.801 L 153.3 68.901 Q 153.3 69.694 152.67 69.858 A 1.473 1.473 0 0 1 152.3 69.901 L 151.3 69.901 Q 150.507 69.901 150.343 69.271 A 1.473 1.473 0 0 1 150.3 68.901 Z M 150.647 8.495 A 4.909 4.909 0 0 0 152.1 8.701 Q 153.9 8.701 155.15 7.501 A 3.913 3.913 0 0 0 156.178 5.879 A 4.712 4.712 0 0 0 156.4 4.401 A 5.316 5.316 0 0 0 156.399 4.285 A 4.048 4.048 0 0 0 155.2 1.401 A 3.939 3.939 0 0 0 153.554 0.406 A 4.909 4.909 0 0 0 152.1 0.201 A 5.525 5.525 0 0 0 151.51 0.232 A 4.048 4.048 0 0 0 149 1.401 A 3.986 3.986 0 0 0 148.073 2.821 A 4.436 4.436 0 0 0 147.8 4.401 A 5.525 5.525 0 0 0 147.831 4.991 A 4.048 4.048 0 0 0 149 7.501 A 3.939 3.939 0 0 0 150.647 8.495 Z" vector-effect="non-scaling-stroke"/></g></svg>