<?xml version="1.0" standalone="no"?>
<!DOCTYPE svg PUBLIC "-//W3C//DTD SVG 20010904//EN"
 "http://www.w3.org/TR/2001/REC-SVG-20010904/DTD/svg10.dtd">
<svg version="1.0" xmlns="http://www.w3.org/2000/svg"
 width="687.000000pt" height="196.000000pt" viewBox="0 0 687.000000 196.000000"
 preserveAspectRatio="xMidYMid meet">

<g transform="translate(0.000000,196.000000) scale(0.100000,-0.100000)"
fill="#000000" stroke="none">
<path d="M865 1359 c-122 -16 -115 0 -115 -283 0 -229 1 -245 20 -269 27 -34
108 -50 224 -45 105 5 163 26 215 79 59 58 76 110 76 224 0 92 -2 104 -30 155
-63 115 -201 165 -390 139z m185 -144 c43 -22 70 -82 70 -155 0 -112 -53 -170
-154 -170 l-46 0 0 170 0 170 50 0 c28 0 64 -7 80 -15z"/>
<path d="M2505 1366 c-5 -3 -36 -7 -68 -11 -101 -11 -99 -4 -95 -301 4 -298 0
-287 103 -282 l60 3 3 93 c3 90 3 92 27 92 20 0 33 -13 62 -62 64 -104 93
-131 142 -131 44 0 91 32 91 61 0 8 -22 42 -48 76 -70 89 -68 82 -23 131 50
54 65 106 51 171 -15 65 -42 99 -103 128 -48 23 -174 43 -202 32z m87 -136
c40 -12 58 -34 58 -73 0 -43 -31 -69 -88 -75 l-52 -5 0 76 c0 90 8 97 82 77z"/>
<path d="M1563 1353 l-23 -4 0 -247 c0 -241 7 -307 32 -324 7 -4 41 -8 76 -8
l62 0 0 115 0 116 93 -3 92 -3 3 -95 c4 -120 11 -130 99 -130 l63 0 0 271 c0
159 -4 278 -10 289 -12 23 -59 34 -110 25 l-40 -7 0 -109 0 -109 -95 0 -95 0
0 93 c0 50 -4 97 -8 103 -19 29 -73 40 -139 27z"/>
<path d="M3102 1353 l-23 -5 3 -275 c3 -320 -1 -306 103 -301 l60 3 0 272 c0
240 -2 274 -16 289 -17 17 -86 26 -127 17z"/>
<path d="M3555 1325 l-25 -24 0 -249 c0 -292 -3 -282 98 -282 l62 0 0 105 0
105 99 0 c77 0 103 4 115 16 18 18 20 51 6 88 -9 26 -11 26 -115 26 l-105 0 0
55 0 55 114 0 c91 0 118 3 130 16 17 16 20 52 10 92 -6 22 -8 22 -186 22 -177
0 -179 0 -203 -25z"/>
<path d="M4176 1334 c-17 -16 -20 -52 -10 -91 6 -21 12 -23 80 -23 l73 0 3
-211 c4 -247 1 -242 103 -237 l60 3 3 223 2 222 64 0 c75 0 96 14 96 65 0 68
11 65 -235 65 -190 0 -226 -2 -239 -16z"/>
<path d="M772 598 c-20 -20 -15 -66 9 -78 31 -17 63 -9 67 18 2 12 -1 22 -7
22 -6 0 -11 -7 -11 -15 0 -20 -39 -19 -47 1 -10 27 11 49 42 46 18 -3 25 0 21
7 -9 15 -59 14 -74 -1z"/>
<path d="M900 560 c0 -27 5 -50 10 -50 6 0 10 7 10 15 0 8 7 15 15 15 9 0 18
-7 21 -15 4 -8 13 -15 21 -15 12 0 13 3 4 14 -9 11 -9 19 0 34 18 29 -4 52
-47 52 l-34 0 0 -50z m65 15 c0 -5 -10 -11 -22 -13 -16 -2 -23 2 -23 13 0 11
7 15 23 13 12 -2 22 -7 22 -13z"/>
<path d="M1047 592 c-22 -24 -21 -45 1 -65 24 -22 55 -21 75 1 21 23 22 46 1
66 -21 21 -57 20 -77 -2z m71 -35 c-4 -32 -54 -36 -63 -6 -5 16 -2 26 10 35
25 18 57 0 53 -29z"/>
<path d="M1180 607 c0 -17 34 -97 41 -97 5 0 15 15 23 33 l14 32 12 -32 c7
-18 16 -33 21 -33 10 0 24 32 35 78 9 36 -8 20 -22 -21 l-11 -32 -12 38 c-15
45 -30 44 -46 -4 l-12 -34 -12 38 c-7 20 -17 37 -22 37 -5 0 -9 -1 -9 -3z"/>
<path d="M1380 560 c0 -27 5 -50 10 -50 6 0 10 23 10 50 0 28 -4 50 -10 50 -5
0 -10 -22 -10 -50z"/>
<path d="M1460 560 c0 -27 5 -50 10 -50 6 0 10 15 10 33 l0 32 26 -32 c14 -18
30 -33 35 -33 5 0 9 23 9 50 0 28 -4 50 -10 50 -5 0 -10 -15 -10 -32 l-1 -33
-27 33 c-15 18 -30 32 -34 32 -5 0 -8 -22 -8 -50z"/>
<path d="M1612 598 c-20 -20 -15 -66 9 -78 31 -17 63 -9 67 18 2 12 -1 22 -7
22 -6 0 -11 -7 -11 -16 0 -23 -44 -14 -48 10 -5 25 22 46 50 38 14 -3 19 -1
14 6 -9 16 -59 15 -74 0z"/>
<path d="M1820 589 c-25 -47 19 -95 67 -73 14 6 10 9 -17 13 -24 4 -36 12 -38
25 -5 25 22 46 50 38 14 -3 19 -1 14 6 -12 20 -64 14 -76 -9z"/>
<path d="M1957 592 c-22 -24 -21 -45 1 -65 35 -32 92 -11 92 33 0 45 -62 66
-93 32z m71 -35 c-5 -37 -67 -33 -68 5 0 4 7 14 16 22 21 22 56 3 52 -27z"/>
<path d="M2100 560 c0 -27 5 -50 10 -50 6 0 10 12 10 28 l0 27 19 -24 19 -24
15 29 16 29 1 -32 c0 -18 5 -33 10 -33 6 0 10 23 10 50 0 28 -4 50 -10 50 -5
0 -10 -3 -10 -7 0 -5 -9 -19 -19 -32 l-19 -24 -16 31 c-24 46 -36 39 -36 -18z"/>
<path d="M2270 560 c0 -27 5 -50 10 -50 6 0 10 12 10 27 l0 27 16 -22 15 -22
19 22 19 23 1 -27 c0 -16 5 -28 10 -28 6 0 10 23 10 50 0 57 -12 64 -36 18
l-16 -31 -19 24 c-10 13 -19 27 -19 32 0 4 -4 7 -10 7 -5 0 -10 -22 -10 -50z"/>
<path d="M2430 588 c1 -62 40 -97 75 -68 17 14 21 90 5 90 -5 0 -10 -18 -10
-40 0 -33 -4 -40 -19 -40 -21 0 -31 19 -31 56 0 13 -4 24 -10 24 -5 0 -10 -10
-10 -22z"/>
<path d="M2580 560 c0 -27 5 -50 10 -50 6 0 10 15 10 33 l0 32 26 -32 c14 -18
30 -33 35 -33 5 0 9 23 9 50 0 28 -4 50 -10 50 -5 0 -10 -15 -10 -32 l-1 -33
-27 33 c-15 18 -30 32 -34 32 -5 0 -8 -22 -8 -50z"/>
<path d="M2720 560 c0 -27 5 -50 10 -50 6 0 10 23 10 50 0 28 -4 50 -10 50 -5
0 -10 -22 -10 -50z"/>
<path d="M2790 600 c0 -5 7 -10 15 -10 11 0 15 -11 15 -40 0 -22 5 -40 10 -40
6 0 10 18 10 40 0 29 4 40 15 40 8 0 15 5 15 10 0 6 -18 10 -40 10 -22 0 -40
-4 -40 -10z"/>
<path d="M2920 560 c0 -27 5 -50 10 -50 6 0 10 23 10 50 0 28 -4 50 -10 50 -5
0 -10 -22 -10 -50z"/>
<path d="M3000 560 l0 -50 35 0 c19 0 35 5 35 10 0 6 -11 10 -25 10 -14 0 -25
5 -25 10 0 6 9 10 20 10 11 0 20 5 20 10 0 6 -9 10 -20 10 -11 0 -20 5 -20 10
0 6 11 10 25 10 14 0 25 5 25 10 0 6 -16 10 -35 10 l-35 0 0 -50z"/>
<path d="M3127 603 c-17 -16 -5 -42 26 -54 l32 -12 -35 -7 c-27 -5 -31 -8 -18
-14 27 -12 53 -3 56 21 3 17 -3 24 -23 29 -30 8 -28 30 4 27 11 -2 21 2 21 7
0 11 -53 14 -63 3z"/>
<path d="M3321 596 c-7 -8 -11 -27 -9 -43 4 -33 48 -54 76 -37 21 13 28 60 11
80 -15 18 -63 18 -78 0z m72 -18 c7 -21 -12 -48 -34 -48 -22 0 -34 22 -25 45
7 18 53 20 59 3z"/>
<path d="M3470 560 c0 -27 5 -50 10 -50 6 0 10 9 10 19 0 12 8 21 23 24 l22 4
-22 2 c-32 2 -30 31 2 31 14 0 25 5 25 10 0 6 -16 10 -35 10 l-35 0 0 -50z"/>
<path d="M3660 560 c0 -27 5 -50 10 -50 6 0 10 6 10 14 0 7 14 16 30 20 23 4
30 11 30 30 0 25 -16 36 -56 36 -22 0 -24 -4 -24 -50z m60 15 c0 -8 -9 -15
-20 -15 -11 0 -20 7 -20 15 0 8 9 15 20 15 11 0 20 -7 20 -15z"/>
<path d="M3790 561 c0 -28 5 -51 10 -51 6 0 10 7 10 15 0 8 7 15 15 15 9 0 18
-7 21 -15 12 -29 21 -14 20 33 -1 47 -1 47 -38 50 l-38 3 0 -50z m65 14 c0 -5
-10 -11 -22 -13 -16 -2 -23 2 -23 13 0 11 7 15 23 13 12 -2 22 -7 22 -13z"/>
<path d="M3938 565 c-12 -24 -18 -48 -14 -52 5 -5 11 -2 13 5 3 6 17 12 33 12
16 0 30 -6 33 -12 2 -7 7 -10 11 -7 8 8 -32 99 -45 99 -5 0 -19 -20 -31 -45z
m42 -1 c0 -8 -6 -14 -14 -14 -9 0 -12 7 -9 20 6 22 23 18 23 -6z"/>
<path d="M4071 596 c-7 -8 -11 -27 -9 -43 3 -31 43 -52 74 -38 16 7 13 9 -16
14 -24 4 -36 12 -38 25 -5 25 22 46 50 38 14 -3 19 -1 14 6 -10 17 -61 15 -75
-2z"/>
<path d="M4190 600 c0 -5 7 -10 15 -10 11 0 15 -11 15 -40 0 -22 5 -40 10 -40
6 0 10 18 10 40 0 29 4 40 15 40 8 0 15 5 15 10 0 6 -18 10 -40 10 -22 0 -40
-4 -40 -10z"/>
<path d="M4320 560 c0 -27 5 -50 10 -50 6 0 10 23 10 50 0 28 -4 50 -10 50 -5
0 -10 -22 -10 -50z"/>
<path d="M4401 596 c-7 -8 -11 -27 -9 -43 3 -31 43 -52 74 -38 16 7 13 9 -16
14 -24 4 -36 12 -38 25 -5 25 22 46 50 38 14 -3 19 -1 14 6 -10 17 -61 15 -75
-2z"/>
<path d="M4530 560 l0 -50 35 0 c19 0 35 5 35 10 0 6 -11 10 -25 10 -14 0 -25
5 -25 10 0 6 9 10 19 10 11 0 23 5 26 10 4 6 -5 10 -19 10 -14 0 -26 5 -26 10
0 6 11 10 25 10 14 0 25 5 25 10 0 6 -16 10 -35 10 l-35 0 0 -50z"/>
</g>
</svg>
